<svg width="129" height="28" viewBox="0 0 129 28" fill="none" xmlns="http://www.w3.org/2000/svg"><path d="M10.28 27.8c-1.973 0-3.68-.16-5.12-.48-1.413-.293-2.64-.64-3.68-1.04L.76 20.8l3.76-.44.44 2.92c.773.267 1.573.467 2.4.6.827.133 1.693.2 2.6.2 1.013 0 1.947-.12 2.8-.36.853-.267 1.533-.653 2.04-1.16.507-.533.76-1.2.76-2 0-.827-.267-1.547-.8-2.16-.507-.613-1.587-1.053-3.24-1.32l-2.88-.48c-2.4-.427-4.24-1.227-5.52-2.4-1.28-1.173-1.92-2.707-1.92-4.6 0-1.52.413-2.8 1.24-3.84S4.387 3.947 5.8 3.44c1.413-.533 3-.8 4.76-.8.88 0 1.747.053 2.6.16.853.107 1.68.267 2.48.48.8.213 1.6.493 2.4.84L18.8 10l-4.04.44-.52-3.6a10.463 10.463 0 0 0-1.8-.44c-.64-.107-1.32-.16-2.04-.16-1.573 0-2.813.28-3.72.84-.88.533-1.32 1.267-1.32 2.2 0 .933.32 1.667.96 2.2.667.507 1.747.893 3.24 1.16l3 .48c2.587.4 4.427 1.187 5.52 2.36 1.093 1.147 1.64 2.64 1.64 4.48 0 1.547-.293 2.827-.88 3.84-.56 1.013-1.307 1.813-2.24 2.4-.933.587-1.96 1-3.08 1.24s-2.2.36-3.24.36Zm21.358-.04c-1.307 0-2.454-.253-3.44-.76-.96-.507-1.707-1.293-2.24-2.36-.534-1.067-.8-2.44-.8-4.12v-7.8h-3.32v-3.6h3.32V5.68l4.4-1.32v4.76h4.84v3.6h-4.84v6.52c0 1.52.2 2.707.6 3.56.426.853 1.12 1.28 2.08 1.28.746 0 1.64-.267 2.68-.8l.84 3.36c-.614.293-1.28.547-2 .76-.694.24-1.4.36-2.12.36Zm19.974-1.56c-1.866 1.04-3.773 1.56-5.72 1.56-2.48 0-4.373-.48-5.68-1.44-1.28-.96-1.92-2.36-1.92-4.2-.026-3.707 2.414-5.56 7.32-5.56h4.48c0-1.627-.333-2.813-1-3.56-.666-.773-1.533-1.16-2.6-1.16-.586 0-1.146.04-1.68.12-.506.08-1.013.2-1.52.36l-.36 1.96-3.76-.52.72-4.24a19.966 19.966 0 0 1 3.24-.84 18.59 18.59 0 0 1 3.48-.32c2.614 0 4.6.693 5.96 2.08 1.387 1.36 2.08 3.373 2.08 6.04v6.64l3.36 1.08-1.24 3.76-5.16-1.76Zm-5.88-6.68c-.906 0-1.6.227-2.08.68-.48.453-.72 1.08-.72 1.88 0 1.52 1.04 2.28 3.12 2.28a7.427 7.427 0 0 0 4.04-1.16v-3.64l-4.36-.04Zm22.625 8.24c-1.307 0-2.454-.253-3.44-.76-.96-.507-1.707-1.293-2.24-2.36-.534-1.067-.8-2.44-.8-4.12v-7.8h-3.32v-3.6h3.32V5.68l4.4-1.32v4.76h4.84v3.6h-4.84v6.52c0 1.52.2 2.707.6 3.56.426.853 1.12 1.28 2.08 1.28.746 0 1.64-.267 2.68-.8l.84 3.36c-.614.293-1.28.547-2 .76-.694.24-1.4.36-2.12.36ZM75.13 9.12h7.92v14.24h3.32V27H75.13v-3.64h3.32V12.72h-3.32v-3.6Zm5.2-8.68c.827 0 1.494.253 2 .76.507.507.76 1.173.76 2s-.253 1.493-.76 2c-.506.507-1.173.76-2 .76-.826 0-1.493-.253-2-.76-.48-.507-.72-1.173-.72-2s.24-1.493.72-2c.507-.507 1.174-.76 2-.76Zm6.056 8.68h9.76v3.6h-2.16l2.76 6.6 1.44 3.72 1.44-3.72 2.8-6.6h-2.16v-3.6h9.56v3.6h-2.68L100.667 27h-5l-6.32-14.28h-2.92l-.04-3.6Zm41.339 15.68c-1.2 1.013-2.427 1.76-3.68 2.24-1.254.48-2.547.72-3.88.72-2 0-3.76-.4-5.28-1.2-1.494-.827-2.654-1.96-3.48-3.4-.827-1.467-1.24-3.147-1.24-5.04 0-1.973.386-3.68 1.16-5.12.8-1.467 1.893-2.6 3.28-3.4 1.386-.827 3-1.24 4.84-1.24 1.84 0 3.44.373 4.8 1.12a7.84 7.84 0 0 1 3.16 3.16c.746 1.333 1.12 2.907 1.12 4.72 0 .32-.027.68-.08 1.08-.027.4-.067.787-.12 1.16h-13.76c.08 1.04.386 1.907.92 2.6.533.667 1.2 1.16 2 1.48.826.32 1.72.48 2.68.48a9.82 9.82 0 0 0 3.2-.52 9.722 9.722 0 0 0 2.76-1.56l1.6 2.72Zm-3.72-8.32c-.027-1.333-.44-2.4-1.24-3.2-.774-.827-1.84-1.24-3.2-1.24-1.28 0-2.4.413-3.36 1.24-.934.8-1.454 1.867-1.56 3.2h9.36Z" fill="#000"/></svg>